<svg xmlns="http://www.w3.org/2000/svg" width="197" height="121" viewBox="0 0 197 121"><rect width="197" height="121" fill="transparent"/><rect x="4" y="4" width="13" height="13" rx="2.5" fill="#38691f"/><rect x="4" y="20" width="13" height="13" rx="2.5" fill="#161d2f"/><rect x="4" y="36" width="13" height="13" rx="2.5" fill="#161d2f"/><rect x="4" y="52" width="13" height="13" rx="2.5" fill="#161d2f"/><rect x="4" y="68" width="13" height="13" rx="2.5" fill="#161d2f"/><rect x="4" y="84" width="13" height="13" rx="2.5" fill="#38691f"/><rect x="4" y="100" width="13" height="13" rx="2.5" fill="#161d2f"/><rect x="20" y="4" width="13" height="13" rx="2.5" fill="#161d2f"/><rect x="20" y="20" width="13" height="13" rx="2.5" fill="#38691f"/><rect x="20" y="36" width="13" height="13" rx="2.5" fill="#274d1f"/><rect x="20" y="52" width="13" height="13" rx="2.5" fill="#38691f"/><rect x="20" y="68" width="13" height="13" rx="2.5" fill="#161d2f"/><rect x="20" y="84" width="13" height="13" rx="2.5" fill="#274d1f"/><rect x="20" y="100" width="13" height="13" rx="2.5" fill="#161d2f"/><rect x="36" y="4" width="13" height="13" rx="2.5" fill="#274d1f"/><rect x="36" y="20" width="13" height="13" rx="2.5" fill="#588b2c"/><rect x="36" y="36" width="13" height="13" rx="2.5" fill="#161d2f"/><rect x="36" y="52" width="13" height="13" rx="2.5" fill="#161d2f"/><rect x="36" y="68" width="13" height="13" rx="2.5" fill="#161d2f"/><rect x="36" y="84" width="13" height="13" rx="2.5" fill="#161d2f"/><rect x="36" y="100" width="13" height="13" rx="2.5" fill="#161d2f"/><rect x="52" y="4" width="13" height="13" rx="2.5" fill="#161d2f"/><rect x="52" y="20" width="13" height="13" rx="2.5" fill="#161d2f"/><rect x="52" y="36" width="13" height="13" rx="2.5" fill="#161d2f"/><rect x="52" y="52" width="13" height="13" rx="2.5" fill="#161d2f"/><rect x="52" y="68" width="13" height="13" rx="2.5" fill="#161d2f"/><rect x="52" y="84" width="13" height="13" rx="2.5" fill="#161d2f"/><rect x="52" y="100" width="13" height="13" rx="2.5" fill="#161d2f"/><rect x="68" y="4" width="13" height="13" rx="2.5" fill="#161d2f"/><rect x="68" y="20" width="13" height="13" rx="2.5" fill="#161d2f"/><rect x="68" y="36" width="13" height="13" rx="2.5" fill="#161d2f"/><rect x="68" y="52" width="13" height="13" rx="2.5" fill="#161d2f"/><rect x="68" y="68" width="13" height="13" rx="2.5" fill="#161d2f"/><rect x="68" y="84" width="13" height="13" rx="2.5" fill="#161d2f"/><rect x="68" y="100" width="13" height="13" rx="2.5" fill="#274d1f"/><rect x="84" y="4" width="13" height="13" rx="2.5" fill="#161d2f"/><rect x="84" y="20" width="13" height="13" rx="2.5" fill="#161d2f"/><rect x="84" y="36" width="13" height="13" rx="2.5" fill="#588b2c"/><rect x="84" y="52" width="13" height="13" rx="2.5" fill="#161d2f"/><rect x="84" y="68" width="13" height="13" rx="2.5" fill="#7fb800"/><rect x="84" y="84" width="13" height="13" rx="2.5" fill="#7fb800"/><rect x="84" y="100" width="13" height="13" rx="2.5" fill="#161d2f"/><rect x="100" y="4" width="13" height="13" rx="2.5" fill="#161d2f"/><rect x="100" y="20" width="13" height="13" rx="2.5" fill="#161d2f"/><rect x="100" y="36" width="13" height="13" rx="2.5" fill="#161d2f"/><rect x="100" y="52" width="13" height="13" rx="2.5" fill="#161d2f"/><rect x="100" y="68" width="13" height="13" rx="2.5" fill="#161d2f"/><rect x="100" y="84" width="13" height="13" rx="2.5" fill="#161d2f"/><rect x="100" y="100" width="13" height="13" rx="2.5" fill="#161d2f"/><rect x="116" y="4" width="13" height="13" rx="2.5" fill="#7fb800"/><rect x="116" y="20" width="13" height="13" rx="2.5" fill="#7fb800"/><rect x="116" y="36" width="13" height="13" rx="2.5" fill="#7fb800"/><rect x="116" y="52" width="13" height="13" rx="2.5" fill="#7fb800"/><rect x="116" y="68" width="13" height="13" rx="2.5" fill="#588b2c"/><rect x="116" y="84" width="13" height="13" rx="2.5" fill="#588b2c"/><rect x="116" y="100" width="13" height="13" rx="2.5" fill="#7fb800"/><rect x="132" y="4" width="13" height="13" rx="2.5" fill="#161d2f"/><rect x="132" y="20" width="13" height="13" rx="2.5" fill="#588b2c"/><rect x="132" y="36" width="13" height="13" rx="2.5" fill="#588b2c"/><rect x="132" y="52" width="13" height="13" rx="2.5" fill="#161d2f"/><rect x="132" y="68" width="13" height="13" rx="2.5" fill="#161d2f"/><rect x="132" y="84" width="13" height="13" rx="2.5" fill="#7fb800"/><rect x="132" y="100" width="13" height="13" rx="2.5" fill="#588b2c"/><rect x="148" y="4" width="13" height="13" rx="2.5" fill="#274d1f"/><rect x="148" y="20" width="13" height="13" rx="2.5" fill="#274d1f"/><rect x="148" y="36" width="13" height="13" rx="2.5" fill="#7fb800"/><rect x="148" y="52" width="13" height="13" rx="2.5" fill="#274d1f"/><rect x="148" y="68" width="13" height="13" rx="2.5" fill="#161d2f"/><rect x="148" y="84" width="13" height="13" rx="2.5" fill="#161d2f"/><rect x="148" y="100" width="13" height="13" rx="2.5" fill="#7fb800"/><rect x="164" y="4" width="13" height="13" rx="2.5" fill="#7fb800"/><rect x="164" y="20" width="13" height="13" rx="2.5" fill="#7fb800"/><rect x="164" y="36" width="13" height="13" rx="2.5" fill="#7fb800"/><rect x="164" y="52" width="13" height="13" rx="2.5" fill="#588b2c"/><rect x="164" y="68" width="13" height="13" rx="2.5" fill="#161d2f"/><rect x="164" y="84" width="13" height="13" rx="2.5" fill="#588b2c"/><rect x="164" y="100" width="13" height="13" rx="2.5" fill="#588b2c"/><rect x="180" y="4" width="13" height="13" rx="2.5" fill="#7fb800"/></svg>